<?xml version="1.0" encoding="utf-8"?>
<!-- Generator: Adobe Illustrator 25.0.0, SVG Export Plug-In . SVG Version: 6.00 Build 0)  -->
<svg version="1.1" id="Layer_1" xmlns="http://www.w3.org/2000/svg" xmlns:xlink="http://www.w3.org/1999/xlink" x="0px" y="0px"
	 viewBox="0 0 108 108" style="enable-background:new 0 0 108 108;" xml:space="preserve">
<style type="text/css">
	.st0{fill:#2A3C90;}
	.st1{fill:#B4C335;}
	.st2{fill:#0B9EDA;}
	.st3{fill:url(#SVGID_1_);}
</style>
<path class="st0" d="M81.54,101.91H26.46c-11.25,0-20.37-9.12-20.37-20.37V26.46c0-11.25,9.12-20.37,20.37-20.37h55.08
	c11.25,0,20.37,9.12,20.37,20.37v55.08C101.91,92.79,92.79,101.91,81.54,101.91z"/>
<path class="st1" d="M54.06,93.46c0,0-19.87-18.47-6.7-33.46C62.54,42.72,89.84,32.42,83.2,24.46c0,0,9.63,5.78,2.93,13.03
	c-6.64,7.14-18.53,19.29-24.75,25.67C55.65,68.99,45.84,79.23,54.06,93.46"/>
<path class="st2" d="M37.55,63.92c0,0-17.86-16.13,0.43-26.21c11.09-6.1,32.06-9.81,35.84-11.55c-2.01,4.14-14.38,8.5-26.45,17.17
	C41.93,47.13,33.16,54.71,37.55,63.92"/>
<linearGradient id="SVGID_1_" gradientUnits="userSpaceOnUse" x1="19.5027" y1="32.337" x2="51.1989" y2="32.337">
	<stop  offset="0" style="stop-color:#53BEEC"/>
	<stop  offset="0.2368" style="stop-color:#1897D4"/>
	<stop  offset="1" style="stop-color:#086994"/>
</linearGradient>
<path class="st3" d="M25.97,26.15c-4.88,0-6.52,2.56-6.46,5.23c0.06,3.65,3.23,7.14,3.23,7.14c-1.04-3.49,1.83-5.83,4.45-7.14
	c7.44-3.76,21.58-4.9,24.01-5.18H25.97"/>
</svg>
