<?xml version="1.0" encoding="utf-8"?>
<!-- Generator: Adobe Illustrator 25.0.0, SVG Export Plug-In . SVG Version: 6.00 Build 0)  -->
<svg version="1.1" xmlns="http://www.w3.org/2000/svg" xmlns:xlink="http://www.w3.org/1999/xlink" x="0px" y="0px"
	 viewBox="0 0 471.2 507" style="enable-background:new 0 0 471.2 507;" xml:space="preserve">
<style type="text/css">
	.st0{fill:#B5C30A;}
	.st1{fill:#029EDA;}
	.st2{fill:url(#SVGID_1_);}
	.st3{display:none;fill:#B5C30A;}
	.st4{display:none;fill:#008AC5;}
</style>
<g id="Layer_1">
	<path class="st0" d="M232.8,495.44c0,0-123.24-128.16-41.58-232.12c94.13-119.84,263.5-191.29,222.29-246.48
		c0,0,59.73,40.07,18.15,90.35c-41.21,49.52-114.93,133.83-153.49,178.06C242.63,325.7,181.77,396.77,232.8,495.44"/>
	<path class="st1" d="M130.35,290.54c0,0-110.77-111.9,2.65-181.84c68.8-42.34,198.85-68.05,222.29-80.15
		c-12.48,28.73-89.22,58.97-164.07,119.08C157.57,174.11,103.13,226.65,130.35,290.54"/>
	<linearGradient id="SVGID_1_" gradientUnits="userSpaceOnUse" x1="18.4407" y1="71.4672" x2="215.033" y2="71.4672">
		<stop  offset="0" style="stop-color:#50BEEB"/>
		<stop  offset="0.2368" style="stop-color:#0097D9"/>
		<stop  offset="1" style="stop-color:#006993"/>
	</linearGradient>
	<path class="st2" d="M58.52,28.56c-30.24,0-40.45,17.77-40.07,36.29c0.38,25.33,20.04,49.52,20.04,49.52
		c-6.43-24.19,11.34-40.45,27.6-49.52c46.12-26.08,133.83-34.02,148.95-35.91H58.52"/>
</g>
<g id="Layer_2">
	<path class="st3" d="M637,298.99c0,3.03-0.22,6.01-0.65,8.92c-3.96,26.95-25.59,48.16-52.75,51.46h-55.76v-94.94h17.48v77.45h37.11
		c18.01-2.61,32.46-16.33,36.17-33.97c0.6-2.88,0.92-5.86,0.92-8.92c0-2.93-0.29-5.8-0.85-8.57c-2.12-10.55-8.09-19.72-16.37-25.99
		c-6.8-5.15-15.15-8.35-24.23-8.74h-50.24v-17.55h49.03l0.01,0.03c30.38,0.34,55.4,22.94,59.52,52.26
		C636.79,293.22,637,296.08,637,298.99z"/>
	<path class="st3" d="M654.48,359.36V237.89h17.49v121.47H654.48z M654.48,237.89v121.47h17.49V237.89H654.48z M671.38,238.47
		h-16.32v120.31h16.32V238.47z"/>
	<path class="st3" d="M791.97,307.47c2.9,5.07,4.56,10.95,4.56,17.2s-1.66,12.14-4.56,17.21c-5.98,10.44-17.23,17.48-30.13,17.48
		h-37.77c-12.91,0-24.17-7.04-30.17-17.48c-2.76-4.83-4.41-10.38-4.57-16.31h17.5c0.5,9.08,8.04,16.31,17.24,16.31h37.77
		c9.49,0,17.2-7.72,17.2-17.21c0-9.49-7.72-17.2-17.2-17.2h-37.82c-9.76,0-18.58-4.03-24.88-10.52c-2.03-2.09-3.79-4.42-5.25-6.96
		c-2.9-5.07-4.56-10.95-4.56-17.21s1.65-12.14,4.56-17.21c5.98-10.44,17.23-17.48,30.13-17.48h36.86c0.3-0.01,0.6-0.02,0.9-0.02
		c0.3,0,0.6,0.01,0.9,0.02c12.53,0.31,23.41,7.27,29.26,17.47c0.01,0.01,0.01,0.01,0.01,0.02c2.76,4.82,4.4,10.37,4.56,16.29h-17.5
		c-0.49-8.87-7.69-15.97-16.6-16.29h-38.41c-9.49,0-17.2,7.72-17.2,17.21c0,8.91,6.81,16.26,15.5,17.12
		c0.58-0.03,1.17-0.05,1.76-0.05c1.02,0,2.02,0.05,3.02,0.13h34.75C774.74,289.98,785.99,297.02,791.97,307.47z"/>
	<path class="st4" d="M221.3,307.09c2.9,5.07,4.56,10.95,4.56,17.2s-1.66,12.14-4.56,17.21c-5.98,10.44-17.23,17.48-30.13,17.48
		H153.4c-12.91,0-24.17-7.04-30.17-17.48c-2.76-4.83-4.41-10.38-4.57-16.31h17.5c0.5,9.08,8.04,16.31,17.24,16.31h37.77
		c9.49,0,17.2-7.72,17.2-17.21c0-9.49-7.72-17.2-17.2-17.2h-37.82c-9.76,0-18.58-4.03-24.88-10.52c-2.03-2.09-3.79-4.42-5.25-6.96
		c-2.9-5.07-4.56-10.95-4.56-17.2s1.65-12.14,4.56-17.21c5.98-10.44,17.23-17.48,30.13-17.48h36.86c0.3-0.01,0.6-0.02,0.9-0.02
		c0.3,0,0.6,0.01,0.9,0.02c12.53,0.31,23.41,7.27,29.26,17.47c0.01,0.01,0.01,0.01,0.01,0.02c2.76,4.82,4.4,10.37,4.56,16.29h-17.5
		c-0.49-8.87-7.69-15.97-16.6-16.29h-38.41c-9.49,0-17.21,7.72-17.21,17.21c0,8.91,6.81,16.26,15.5,17.12
		c0.58-0.03,1.17-0.05,1.76-0.05c1.02,0,2.02,0.05,3.02,0.13h34.75C204.07,289.6,215.32,296.64,221.3,307.09z"/>
	<path class="st4" d="M294.04,292.23c1.04,1.52,3.55,1.41,4.44-0.18c8.28-14.69,17.05-29.21,24.39-44.28
		c4.01-8.25,9.19-10.88,18.85-10.29c12.79,0.78,12.86,0.2,7.2,10.28c-16.03,28.56-32.05,57.11-48.14,85.64
		c-0.81,1.44-1.29,3.11-2.63,4.53c-1.15,1.21-3.34,0.89-4.14-0.53c-9.18-16.31-18.36-32.63-27.62-49.09
		c-1.24-2.21-4.85-1.34-4.83,1.13c0,0.02,0,0.04,0,0.05c-0.09,20.8-0.23,41.59,0.06,62.39c0.07,5.28-1.02,7.59-7.72,7.47
		c-15.37-0.26-15.38,0.06-15.38-13.98c0-33.57,0.14-67.15-0.14-100.72c-0.05-5.45,1.41-6.63,7.66-7.29
		c13.31-1.41,20.7,2.53,25.64,13.97c5.6,12.98,13.59,25.13,20.63,37.6C292.91,289.97,293.3,291.15,294.04,292.23z"/>
	<path class="st4" d="M431.54,237.67c8.11,0,16.21-0.03,24.32,0.01c21.97,0.08,41.17,13.67,44.78,31.66
		c4.3,21.43-5.8,37.72-28.72,45.53c-4.81,1.64-4.55,3.38-2.55,6.83c6.16,10.61,11.85,21.44,18.02,32.05
		c2.59,4.44,1.24,5.04-3.89,5.64c-13.54,1.6-21.85-1.96-27.07-14.3c-5.98-14.14-14.65-27.39-22.49-40.87
		c-2.77-4.77-1.58-6.03,4.09-5.8c6.13,0.24,12.31,0.24,18.42-0.16c14-0.9,22.43-8.92,22.24-20.74
		c-0.18-10.75-9.68-19.24-22.83-19.67c-11.72-0.38-23.53-0.7-35.2,0.11c-9.77,0.68-15.19-2.07-18.71-10.47
		c-4.22-10.05-4.93-9.81,6.94-9.81C416.45,237.67,423.99,237.67,431.54,237.67z"/>
	<path class="st4" d="M376.74,284.87c-3.92,2.28-4.59,5.37-6.04,7.94c-10.88,19.18-22.08,38.23-32.25,57.71
		c-3.65,7-8,9.43-16.49,9.02c-14.2-0.68-14.23-0.18-7.99-11.37c19.21-34.47,38.4-68.95,57.7-103.38c1.05-1.87,1.3-5.08,4.23-4.99
		c2.81,0.09,3.06,3.24,4.13,5.15c12.43,22.12,24.66,44.34,37.22,66.4c2.79,4.91,2.72,6.1-4.24,6.92c-4.2,0.5-8.96,0.71-13.6-1.23
		c-4.22-1.76-6.26-4.57-11.78-13.6C384.42,298.17,380.73,291.94,376.74,284.87z"/>
	<path class="st4" d="M381.44,264.32l-6.16,2.88c-3.81,1.78-5.28,5.99-3.29,9.4l47.25,81.04c1.99,3.41,6.68,4.73,10.49,2.95
		l13.04-6.11l-50.85-87.21C389.94,263.86,385.25,262.54,381.44,264.32z"/>
</g>
</svg>
